<?xml version="1.0" encoding="UTF-8" standalone="no"?>
<!DOCTYPE svg PUBLIC "-//W3C//DTD SVG 1.1//EN" "http://www.w3.org/Graphics/SVG/1.1/DTD/svg11.dtd">
<!-- Created with Vectornator (http://vectornator.io/) -->
<svg height="100%" stroke-miterlimit="10" style="fill-rule:nonzero;clip-rule:evenodd;stroke-linecap:round;stroke-linejoin:round;" version="1.1" viewBox="0 0 512 512" width="100%" xml:space="preserve" xmlns="http://www.w3.org/2000/svg" xmlns:vectornator="http://vectornator.io" xmlns:xlink="http://www.w3.org/1999/xlink">
<defs/>
<g id="Слой-1" vectornator:layerName="Слой 1">
<path d="M229.667 236.529C229.667 225.484 238.622 216.529 249.667 216.529L256 216.529L262.333 216.529C273.378 216.529 282.333 225.484 282.333 236.529L282.333 316.265L282.333 396C282.333 407.046 273.378 416 262.333 416L256 416L249.667 416C238.622 416 229.667 407.046 229.667 396L229.667 316.265L229.667 236.529Z" fill="#ffffff" fill-rule="nonzero" opacity="1" stroke="#ffffff" stroke-linecap="butt" stroke-linejoin="round" stroke-width="15" vectornator:layerName="Прямоугольник 1"/>
<path d="M96 236.529C96 225.484 104.954 216.529 116 216.529L148.666 216.529L181.331 216.529C192.377 216.529 201.331 225.484 201.331 236.529L201.331 241.149L201.331 245.769C201.331 256.814 192.377 265.769 181.331 265.769L148.666 265.769L116 265.769C104.954 265.769 96 256.814 96 245.769L96 241.149L96 236.529Z" fill="#ffffff" fill-rule="nonzero" opacity="1" stroke="none" vectornator:layerName="Прямоугольник 2"/>
<path d="M310.669 236.529C310.669 225.484 319.623 216.529 330.669 216.529L363.334 216.529L396 216.529C407.046 216.529 416 225.484 416 236.529L416 241.149L416 245.769C416 256.814 407.046 265.769 396 265.769L363.334 265.769L330.669 265.769C319.623 265.769 310.669 256.814 310.669 245.769L310.669 241.149L310.669 236.529Z" fill="#ffffff" fill-rule="nonzero" opacity="1" stroke="none" vectornator:layerName="Прямоугольник 3"/>
<path d="M117.066 302.545C117.066 291.5 126.021 282.545 137.066 282.545L159.199 282.545L181.331 282.545C192.377 282.545 201.331 291.5 201.331 302.545L201.331 349.273L201.331 396C201.331 407.046 192.377 416 181.331 416L159.199 416L137.066 416C126.021 416 117.066 407.046 117.066 396L117.066 349.273L117.066 302.545Z" fill="#ffffff" fill-rule="nonzero" opacity="1" stroke="none" vectornator:layerName="Прямоугольник 4"/>
<path d="M310.669 302.545C310.669 291.5 319.623 282.545 330.669 282.545L352.801 282.545L374.934 282.545C385.979 282.545 394.934 291.5 394.934 302.545L394.934 349.273L394.934 396C394.934 407.046 385.979 416 374.934 416L352.801 416L330.669 416C319.623 416 310.669 407.046 310.669 396L310.669 349.273L310.669 302.545Z" fill="#ffffff" fill-rule="nonzero" opacity="1" stroke="none" vectornator:layerName="Прямоугольник 5"/>
<g opacity="1" vectornator:layerName="Группа 1">
<path d="M253.624 96C240.393 96 229.667 106.679 229.667 119.852L238.651 119.852C238.651 111.619 245.354 104.944 253.624 104.944C261.893 104.944 268.596 111.619 268.596 119.852L277.58 119.852C277.58 106.679 266.854 96 253.624 96Z" fill="#ffffff" fill-rule="nonzero" opacity="1" stroke="#ffffff" stroke-linecap="butt" stroke-linejoin="round" stroke-width="15"/>
<path d="M268.596 119.852C268.609 125.148 265.696 129.57 261.522 132.225C261.46 132.264 261.395 132.296 261.335 132.337C260.586 132.836 259.904 133.423 259.051 133.753C257.047 135.204 255.315 136.983 253.848 138.97C253.796 139.041 253.713 139.085 253.661 139.157C250.823 143.093 249.112 147.879 249.132 153.095L258.115 153.058C258.095 147.724 261.045 143.26 265.265 140.61C265.312 140.58 265.368 140.566 265.415 140.536C266.137 140.093 266.752 139.511 267.548 139.194C267.574 139.183 267.597 139.167 267.623 139.157C268.662 138.406 269.633 137.592 270.543 136.697C271.454 135.81 272.302 134.86 273.051 133.827L273.051 133.79C275.894 129.857 277.593 125.068 277.58 119.852L268.596 119.852Z" fill="#ffffff" fill-rule="nonzero" opacity="1" stroke="#ffffff" stroke-linecap="round" stroke-linejoin="round" stroke-width="15"/>
<path d="M249.104 175.607L258.143 175.607L258.143 184.611L249.104 184.611L249.104 175.607Z" fill="#ffffff" fill-rule="nonzero" opacity="1" stroke="#ffffff" stroke-linecap="butt" stroke-linejoin="round" stroke-width="15" vectornator:layerName="Прямоугольник 1"/>
</g>
<g opacity="1" vectornator:layerName="Группа 2">
<path d="M348.416 143.461C342.569 137.64 333.088 137.64 327.241 143.461L331.211 147.414C334.866 143.776 340.791 143.776 344.446 147.414C348.1 151.053 348.1 156.952 344.446 160.591L348.416 164.543C354.263 158.722 354.263 149.283 348.416 143.461Z" fill="#ffffff" fill-rule="nonzero" opacity="1" stroke="#ffffff" stroke-linecap="butt" stroke-linejoin="round" stroke-width="10"/>
<path d="M344.446 160.591C342.1 162.937 338.85 163.609 335.827 162.946C335.782 162.936 335.739 162.922 335.694 162.913C335.142 162.804 334.58 162.763 334.057 162.534C332.527 162.294 330.972 162.317 329.441 162.551C329.387 162.559 329.33 162.542 329.276 162.551C326.274 163.041 323.394 164.404 321.087 166.718L325.074 170.654C327.433 168.288 330.718 167.613 333.759 168.299C333.793 168.306 333.824 168.325 333.858 168.332C334.374 168.454 334.904 168.467 335.397 168.677C335.413 168.684 335.43 168.687 335.446 168.694C336.239 168.82 337.029 168.887 337.828 168.892C338.625 168.9 339.422 168.854 340.211 168.727L340.227 168.71C343.229 168.224 346.106 166.854 348.416 164.543L344.446 160.591Z" fill="#ffffff" fill-rule="nonzero" opacity="1" stroke="#ffffff" stroke-linecap="round" stroke-linejoin="round" stroke-width="10"/>
<path d="M311.082 176.654L315.077 180.631L311.08 184.611L307.086 180.634L311.082 176.654Z" fill="#ffffff" fill-rule="nonzero" opacity="1" stroke="#ffffff" stroke-linecap="butt" stroke-linejoin="round" stroke-width="10" vectornator:layerName="Прямоугольник 1"/>
</g>
<g opacity="1" vectornator:layerName="Группа 3">
<path d="M163.584 143.461C157.737 149.283 157.737 158.722 163.584 164.543L167.554 160.591C163.9 156.952 163.9 151.053 167.554 147.414C171.209 143.776 177.134 143.776 180.789 147.414L184.759 143.461C178.912 137.64 169.431 137.64 163.584 143.461Z" fill="#ffffff" fill-rule="nonzero" opacity="1" stroke="#ffffff" stroke-linecap="butt" stroke-linejoin="round" stroke-width="10"/>
<path d="M180.789 147.414C183.145 149.749 183.821 152.986 183.154 155.995C183.144 156.04 183.13 156.082 183.121 156.127C183.012 156.677 182.971 157.237 182.741 157.758C182.499 159.281 182.523 160.829 182.757 162.353C182.766 162.407 182.748 162.463 182.757 162.518C183.25 165.506 184.619 168.374 186.942 170.67L190.896 166.701C188.52 164.353 187.842 161.082 188.531 158.054C188.538 158.02 188.557 157.989 188.564 157.955C188.686 157.442 188.7 156.914 188.911 156.424C188.918 156.407 188.921 156.39 188.928 156.374C189.054 155.585 189.121 154.798 189.126 154.002C189.135 153.209 189.088 152.416 188.961 151.631L188.944 151.614C188.455 148.625 187.08 145.761 184.759 143.461L180.789 147.414Z" fill="#ffffff" fill-rule="nonzero" opacity="1" stroke="#ffffff" stroke-linecap="butt" stroke-linejoin="round" stroke-width="10"/>
<path d="M196.923 180.631L200.918 176.654L204.914 180.634L200.92 184.611L196.923 180.631Z" fill="#ffffff" fill-rule="nonzero" opacity="1" stroke="#ffffff" stroke-linecap="butt" stroke-linejoin="round" stroke-width="10" vectornator:layerName="Прямоугольник 1"/>
</g>
</g>
</svg>
