<?xml version="1.0" encoding="UTF-8" standalone="no"?>
<!DOCTYPE svg PUBLIC "-//W3C//DTD SVG 1.1//EN" "http://www.w3.org/Graphics/SVG/1.1/DTD/svg11.dtd">
<!-- Created with Vectornator (http://vectornator.io/) -->
<svg height="100%" stroke-miterlimit="10" style="fill-rule:nonzero;clip-rule:evenodd;stroke-linecap:round;stroke-linejoin:round;" version="1.1" viewBox="0 0 512 512" width="100%" xml:space="preserve" xmlns="http://www.w3.org/2000/svg" xmlns:vectornator="http://vectornator.io" xmlns:xlink="http://www.w3.org/1999/xlink">
<defs/>
<path d="M0 0L512 0L512 512L0 512L0 0Z" fill="#64aef2" fill-rule="nonzero" opacity="1" stroke="none" vectornator:artboardBackground="true"/>
<g id="Слой-1" vectornator:layerName="Слой 1">
<path d="M229.667 235.653C229.667 224.607 238.622 215.653 249.667 215.653L256 215.653L262.333 215.653C273.378 215.653 282.333 224.607 282.333 235.653L282.333 315.826L282.333 396C282.333 407.046 273.378 416 262.333 416L256 416L249.667 416C238.622 416 229.667 407.046 229.667 396L229.667 315.826L229.667 235.653Z" fill="#ffffff" fill-rule="nonzero" opacity="1" stroke="#ffffff" stroke-linecap="butt" stroke-linejoin="round" stroke-width="15" vectornator:layerName="Прямоугольник 1"/>
<path d="M96 235.653C96 224.607 104.954 215.653 116 215.653L148.666 215.653L181.331 215.653C192.377 215.653 201.331 224.607 201.331 235.653L201.331 240.381L201.331 245.109C201.331 256.154 192.377 265.109 181.331 265.109L148.666 265.109L116 265.109C104.954 265.109 96 256.154 96 245.109L96 240.381L96 235.653Z" fill="#ffffff" fill-rule="nonzero" opacity="1" stroke="none" vectornator:layerName="Прямоугольник 5"/>
<path d="M310.669 235.653C310.669 224.607 319.623 215.653 330.669 215.653L363.334 215.653L396 215.653C407.046 215.653 416 224.607 416 235.653L416 240.381L416 245.109C416 256.154 407.046 265.109 396 265.109L363.334 265.109L330.669 265.109C319.623 265.109 310.669 256.154 310.669 245.109L310.669 240.381L310.669 235.653Z" fill="#ffffff" fill-rule="nonzero" opacity="1" stroke="none" vectornator:layerName="Прямоугольник 7"/>
<path d="M117.066 301.959C117.066 290.913 126.021 281.959 137.066 281.959L159.199 281.959L181.331 281.959C192.377 281.959 201.331 290.913 201.331 301.959L201.331 348.979L201.331 396C201.331 407.046 192.377 416 181.331 416L159.199 416L137.066 416C126.021 416 117.066 407.046 117.066 396L117.066 348.979L117.066 301.959Z" fill="#ffffff" fill-rule="nonzero" opacity="1" stroke="none" vectornator:layerName="Прямоугольник 2"/>
<path d="M310.669 301.959C310.669 290.913 319.623 281.959 330.669 281.959L352.801 281.959L374.934 281.959C385.979 281.959 394.934 290.913 394.934 301.959L394.934 348.979L394.934 396C394.934 407.046 385.979 416 374.934 416L352.801 416L330.669 416C319.623 416 310.669 407.046 310.669 396L310.669 348.979L310.669 301.959Z" fill="#ffffff" fill-rule="nonzero" opacity="1" stroke="none" vectornator:layerName="Прямоугольник 3"/>
<path d="M258.49 171.588C256.93 170.67 254.995 170.668 253.433 171.582L238.981 180.031C235.345 182.156 230.872 179.11 231.516 174.948L234.548 155.383C234.781 153.882 234.318 152.356 233.291 151.237L220.156 136.926C217.463 133.992 219.114 129.241 223.046 128.608L240.317 125.832C241.987 125.564 243.407 124.47 244.093 122.924L251.462 106.326C253.223 102.359 258.855 102.366 260.606 106.336L267.939 122.955C268.621 124.502 270.039 125.599 271.707 125.871L288.975 128.692C292.905 129.333 294.544 134.088 291.845 137.016L278.678 151.293C277.648 152.411 277.182 153.935 277.411 155.438L280.399 175.008C281.034 179.171 276.553 182.207 272.922 180.072L258.49 171.588Z" fill="#ffffff" fill-rule="nonzero" opacity="1" stroke="#ffffff" stroke-linecap="butt" stroke-linejoin="round" stroke-width="15" vectornator:layerName="Звезда 1"/>
</g>
</svg>
